# xmcd
#
# Track frame offsets: 
#        150
#        17613
#        39434
#        55625
#        71276
#        98061
#        115425
#        137546
#        153866
#        170472
#        187559
#
# Disc length: 2821 seconds
#
# Revision: 3
# Processed by: cddbd v1.4PL0 Copyright (c) Steve Scherf et al.
# Submitted via: ExactAudioCopy v0.90b4
#
DISCID=790b030b
DTITLE=Rodney Crowell - The Houston Kid
DYEAR=2001
DGENRE=Country
TTITLE0=Telephone Road
TTITLE1=The Rock Of My Soul
TTITLE2=Why Don't We Talk About It
TTITLE3=I Wish It Would Rain
TTITLE4=Wandering Boy
TTITLE5=I Walk The Line (Revisited)
TTITLE6=Highway 17
TTITLE7=U Don't Know How Much I Hate U
TTITLE8=Banks Of The Old Bandera
TTITLE9=Topsy Turvy
TTITLE10=I Know Love Is All I Need
EXTD=ID3G:   2
EXTT0=
EXTT1=
EXTT2=
EXTT3=
EXTT4=
EXTT5=
EXTT6=
EXTT7=
EXTT8=
EXTT9=
EXTT10=
PLAYORDER=
